<?xml version="1.0" encoding="UTF-8" standalone="no"?>
<!-- Created with Inkscape (http://www.inkscape.org/) -->

<svg
   version="1.1"
   id="svg132"
   width="128"
   height="128"
   viewBox="0 0 128 128"
   sodipodi:docname="hexagram.svg"
   inkscape:version="1.3.2 (091e20ef0f, 2023-11-25)"
   xmlns:inkscape="http://www.inkscape.org/namespaces/inkscape"
   xmlns:sodipodi="http://sodipodi.sourceforge.net/DTD/sodipodi-0.dtd"
   xmlns="http://www.w3.org/2000/svg"
   xmlns:svg="http://www.w3.org/2000/svg">
  <defs
     id="defs136" />
  <sodipodi:namedview
     id="namedview134"
     pagecolor="#ffffff"
     bordercolor="#000000"
     borderopacity="0.25"
     inkscape:showpageshadow="2"
     inkscape:pageopacity="0.0"
     inkscape:pagecheckerboard="0"
     inkscape:deskcolor="#d1d1d1"
     showgrid="false"
     inkscape:zoom="1.2362219"
     inkscape:cx="243.07934"
     inkscape:cy="204.25136"
     inkscape:window-width="1920"
     inkscape:window-height="1011"
     inkscape:window-x="0"
     inkscape:window-y="32"
     inkscape:window-maximized="1"
     inkscape:current-layer="g138" />
  <g
     inkscape:groupmode="layer"
     inkscape:label="Image"
     id="g138">
    <path
       style="fill:#ffffff;fill-opacity:1;stroke-width:0.198485"
       d="m 40.791145,71.857799 3.6049,-6.32834 19.25895,33.32959 0.40196,0.65374 5.68111,-9.84232 7.42732,-0.1082 -0.28742,0.451069 L 64.036555,112 Z m 4.64687,-23.96838 h 7.27619 l -0.23639,0.44659 -18.94264,32.95591 11.06954,0.43915 3.53037,6.18383 -25.84223,0.0685 z m 10.08299,33.74433 39.21456,-0.10116 -5.46321,-9.73896 3.54406,-6.04058 12.846185,22.06071 -46.511605,0.16293 z m 39.20456,-35.23297 -11.18325,-0.1052 -3.6247,-6.246314 H 105.70714 L 82.626825,80.043949 h -7.30952 z M 22.309076,39.950023 h 46.609599 l 3.59438,6.252276 -38.99576,0.39256 5.28901,9.45115 -3.55215,6.13364 z m 41.651179,-11.334151 -5.65245,9.647035 -7.38228,0.107956 12.97058,-22.370861 23.30083,39.928167 -3.51381,6.25215 z"
       id="path300"
       sodipodi:nodetypes="ccccccccccccccccccccccccccccccccccccccccccccc" />
  </g>
</svg>
