<?xml version="1.0" encoding="UTF-8" standalone="no"?>
<!-- Created with Inkscape (http://www.inkscape.org/) -->

<svg
   width="32"
   height="32"
   viewBox="0 0 32 32"
   version="1.1"
   id="svg5"
   xml:space="preserve"
   inkscape:version="1.3.2 (091e20ef0f, 2023-11-25)"
   sodipodi:docname="menu-mastodon.svg"
   xmlns:inkscape="http://www.inkscape.org/namespaces/inkscape"
   xmlns:sodipodi="http://sodipodi.sourceforge.net/DTD/sodipodi-0.dtd"
   xmlns="http://www.w3.org/2000/svg"
   xmlns:svg="http://www.w3.org/2000/svg"><sodipodi:namedview
     id="namedview7"
     pagecolor="#ffffff"
     bordercolor="#000000"
     borderopacity="0.25"
     inkscape:showpageshadow="2"
     inkscape:pageopacity="0.0"
     inkscape:pagecheckerboard="0"
     inkscape:deskcolor="#d1d1d1"
     inkscape:document-units="px"
     showgrid="false"
     inkscape:zoom="4"
     inkscape:cx="68.875"
     inkscape:cy="2.375"
     inkscape:window-width="1920"
     inkscape:window-height="1011"
     inkscape:window-x="0"
     inkscape:window-y="32"
     inkscape:window-maximized="1"
     inkscape:current-layer="layer1" /><defs
     id="defs2"><linearGradient
       id="paint0_linear_89_8"
       x1="30.5"
       y1="0"
       x2="30.5"
       y2="65"
       gradientUnits="userSpaceOnUse"
       gradientTransform="translate(54.749998,-41.749982)"><stop
         stop-color="#6364FF"
         id="stop1190" /><stop
         offset="1"
         stop-color="#563ACC"
         id="stop1192" /></linearGradient></defs><g
     inkscape:label="Camada 1"
     inkscape:groupmode="layer"
     id="layer1"><path
       id="path1186"
       style="fill:#ffffff;fill-opacity:1;stroke-width:0.369234"
       d="m 15.785028,3.9999999 c -3.94622,0 -4.793328,0.2421165 -5.242833,0.3086565 -2.5900693,0.382878 -4.955258,2.2088145 -5.5291325,4.8180695 -0.276027,1.2850061 -0.3051262,2.7100691 -0.253848,4.0168601 0.073095,1.874045 0.087255,3.744223 0.257454,5.610624 0.117663,1.239776 0.3231105,2.47001 0.6144278,3.680801 0.5455095,2.236188 2.7533782,4.097072 4.9168677,4.85629 2.316313,0.791747 4.807492,0.922916 7.194292,0.37933 0.262562,-0.06107 0.522105,-0.13199 0.778131,-0.212742 0.580398,-0.184322 1.259947,-0.390026 1.759631,-0.75217 0.0069,-0.0051 0.01264,-0.01194 0.01659,-0.01947 0.004,-0.0076 0.0062,-0.01599 0.0065,-0.02452 v -1.80867 c -1.48e-4,-0.008 -0.0023,-0.0152 -0.0058,-0.02236 -0.0035,-0.0071 -0.0089,-0.01384 -0.01514,-0.01875 -0.0063,-0.0049 -0.01384,-0.0084 -0.02164,-0.01009 -0.0078,-0.0017 -0.01532,-0.0018 -0.02308,0 -1.529217,0.365246 -3.096556,0.548798 -4.668789,0.545918 -2.705706,0 -3.433498,-1.284262 -3.641857,-1.818765 -0.167521,-0.461948 -0.273369,-0.943415 -0.315868,-1.432945 -4.43e-4,-0.0082 9.75e-4,-0.01699 0.0044,-0.02452 0.0033,-0.0075 0.008,-0.01426 0.01442,-0.01947 0.0064,-0.0052 0.01431,-0.0084 0.02236,-0.01009 0.008,-0.0018 0.01583,-0.0021 0.0238,0 1.503704,0.362734 3.045443,0.546324 4.592346,0.545918 0.372003,0 0.742875,-2.75e-4 1.114914,-0.0101 1.555765,-0.04364 3.195786,-0.122984 4.726484,-0.421879 0.03817,-0.0076 0.07618,-0.0147 0.108894,-0.02452 2.414416,-0.46361 4.712211,-1.91861 4.945714,-5.603413 0.0087,-0.145072 0.03029,-1.519669 0.03029,-1.670206 0.0011,-0.51161 0.164955,-3.628805 -0.0238,-5.5442771 -0.346936,-2.578713 -2.594462,-4.611054 -5.258702,-5.004843 -0.449556,-0.066551 -2.152347,-0.308667 -6.097458,-0.308667 z m -3.292095,3.9267158 c 1.299407,0 2.281949,0.499737 2.936563,1.4978492 l 0.631015,1.0601051 0.633178,-1.0601051 c 0.654614,-0.9981122 1.636451,-1.4978492 2.933679,-1.4978492 1.121583,0 2.026367,0.3949125 2.718053,1.1639522 0.667722,0.77011 1.000985,1.8100301 1.000246,3.1197371 v 6.406785 h -2.539203 v -6.217841 c 0,-1.309006 -0.545478,-1.976699 -1.655062,-1.976699 -1.219763,0 -1.830304,0.789638 -1.830304,2.349539 v 3.403874 H 14.79776 v -3.403874 c 0,-1.559901 -0.612704,-2.349539 -1.832468,-2.349539 -1.10301,0 -1.653619,0.667693 -1.653619,1.976699 V 18.61719 H 8.7739109 v -6.406785 c 0,-1.309006 0.33399,-2.3488891 1.002413,-3.1197371 C 10.465867,8.3216282 11.370279,7.9267157 12.492933,7.9267157 Z" /></g></svg>
