<?xml version="1.0" encoding="UTF-8" standalone="no"?>
<!-- Created with Inkscape (http://www.inkscape.org/) -->

<svg
   width="32"
   height="32"
   viewBox="0 0 32 32"
   version="1.1"
   id="svg5"
   xml:space="preserve"
   inkscape:version="1.3.2 (091e20ef0f, 2023-11-25)"
   sodipodi:docname="menu-reddit.svg"
   xmlns:inkscape="http://www.inkscape.org/namespaces/inkscape"
   xmlns:sodipodi="http://sodipodi.sourceforge.net/DTD/sodipodi-0.dtd"
   xmlns="http://www.w3.org/2000/svg"
   xmlns:svg="http://www.w3.org/2000/svg"><sodipodi:namedview
     id="namedview7"
     pagecolor="#ffffff"
     bordercolor="#000000"
     borderopacity="0.25"
     inkscape:showpageshadow="2"
     inkscape:pageopacity="0.0"
     inkscape:pagecheckerboard="0"
     inkscape:deskcolor="#d1d1d1"
     inkscape:document-units="px"
     showgrid="false"
     inkscape:zoom="8"
     inkscape:cx="20.8125"
     inkscape:cy="23.5625"
     inkscape:window-width="1920"
     inkscape:window-height="1011"
     inkscape:window-x="0"
     inkscape:window-y="32"
     inkscape:window-maximized="1"
     inkscape:current-layer="layer1" /><defs
     id="defs2" /><g
     inkscape:label="Camada 1"
     inkscape:groupmode="layer"
     id="layer1"><path
       id="path1116"
       style="fill:#ffffff;fill-opacity:1;stroke-width:0.333333"
       d="M 16,4 C 9.3666741,4 3.9999999,9.366673 3.9999999,16 3.9999999,22.633326 9.3666741,28 16,28 22.633327,28 28,22.633326 28,16 28,9.366673 22.633327,4 16,4 Z m 4.999512,4.7680665 C 21.666178,8.7680665 22.23291,9.3 22.23291,10 c 0,0.666666 -0.533399,1.233398 -1.233398,1.233398 -0.666666,0 -1.200069,-0.53304 -1.233399,-1.199706 l -2.598632,-0.566896 -0.80127,3.767579 c 1.833332,0.06667 3.466993,0.633334 4.666992,1.5 0.3,-0.3 0.73304,-0.500977 1.199707,-0.500977 0.966665,0 1.766602,0.799936 1.766602,1.766602 0,0.699999 -0.432358,1.334049 -0.999024,1.567383 0.03333,0.166666 0.03223,0.366535 0.03223,0.533203 0,2.699998 -3.13236,4.86621 -6.999023,4.86621 -3.866663,0 -7.0004879,-2.166212 -7.0004879,-4.86621 0,-0.166668 3.61e-4,-0.366537 0.03369,-0.533203 -0.5999991,-0.266667 -1.0341793,-0.89961 -1.0341793,-1.59961 0,-0.966666 0.8014005,-1.766601 1.7680663,-1.766601 0.4666659,0 0.8997079,0.199512 1.1997069,0.499512 1.233332,-0.866666 2.899938,-1.432979 4.766602,-1.466309 v -0.06738 l 0.865722,-4.100098 c 0,-0.1 0.06663,-0.1658885 0.133301,-0.1992185 0.06667,-0.03333 0.167707,-0.06702 0.234375,-0.03369 l 2.898926,0.6328125 c 0.2,-0.4 0.600098,-0.69873 1.100098,-0.69873 z M 13.266602,16 c -0.699999,0 -1.26709,0.56709 -1.26709,1.26709 0,0.666665 0.567091,1.233398 1.26709,1.233398 C 13.933268,18.500488 14.5,17.967089 14.5,17.26709 14.5,16.56709 13.966601,16 13.266602,16 Z m 5.466796,0 C 18.066732,16 17.5,16.56709 17.5,17.26709 c 0,0.666665 0.533399,1.233398 1.233398,1.233398 0.699999,0 1.266728,-0.566733 1.233398,-1.233398 0,-0.7 -0.566732,-1.26709 -1.233398,-1.26709 z m -5.466796,4.000488 c -0.08333,0 -0.166244,0.03294 -0.232911,0.09961 -0.133333,0.133333 -0.133333,0.333951 0,0.467285 0.866667,0.866664 2.499643,0.933105 2.966309,0.933105 0.466666,0 2.099642,-0.06644 2.966308,-0.933105 0.133334,-0.133334 0.133334,-0.333952 0,-0.467285 -0.133333,-0.133333 -0.332487,-0.133333 -0.46582,0 C 17.967155,20.63343 16.833333,20.833984 16,20.833984 c -0.799999,0 -1.967156,-0.200554 -2.500488,-0.733886 -0.06667,-0.06667 -0.149577,-0.09961 -0.23291,-0.09961 z" /></g></svg>
